<svg id="Layer_1" enable-background="new 0 0 50 50" height="512" viewBox="0 0 50 50" width="512" xmlns="http://www.w3.org/2000/svg"><g id="XMLID_5158_"><g id="XMLID_5174_"><g id="XMLID_5185_"><g id="XMLID_5188_"><circle cx="30.824" cy="14.584" fill="#638b3f" r="13.583"/></g><g id="XMLID_5186_"><circle cx="30.824" cy="14.584" fill="#88c057" r="11.055"/></g></g><g id="XMLID_5175_"><g id="XMLID_5176_"><g id="XMLID_5177_"><g id="XMLID_5178_"><g id="XMLID_5179_"><path d="m30.872 22.365c-.209 0-.4-.075-.535-.212-.138-.137-.209-.322-.209-.533v-.888c-1.139-.088-2.217-.351-3.211-.782-.189-.079-.351-.204-.478-.373-.138-.177-.207-.384-.207-.614 0-.285.098-.533.292-.737.198-.206.46-.314.758-.314.159 0 .316.033.465.097.709.316 1.51.509 2.381.574v-2.975c-.669-.184-1.245-.378-1.711-.577-.569-.243-1.056-.598-1.449-1.055-.414-.484-.624-1.114-.624-1.873 0-.651.164-1.255.489-1.795.328-.544.813-.988 1.44-1.32.526-.278 1.149-.456 1.854-.531v-.894c0-.205.068-.388.2-.53.138-.151.327-.231.545-.231.213 0 .4.076.542.22.142.14.218.328.218.541v.868c.929.061 1.805.242 2.609.537.451.16.71.529.71 1.011 0 .268-.092.509-.275.717-.192.218-.455.334-.76.334-.117 0-.249-.03-.403-.092-.604-.214-1.236-.346-1.88-.39v3.117c.67.167 1.244.35 1.708.543.572.239 1.061.598 1.454 1.068.413.493.623 1.149.623 1.949 0 .657-.18 1.254-.534 1.774-.348.51-.843.925-1.471 1.234-.517.254-1.116.419-1.779.492v.896c0 .22-.079.409-.231.547-.142.128-.325.197-.531.197zm.76-3.82c1.373-.203 1.554-.861 1.554-1.417 0-.282-.123-.481-.4-.647-.272-.164-.66-.324-1.154-.477zm-1.505-7.924c-.43.084-.789.23-1.068.437-.332.244-.486.54-.486.933 0 .36.133.614.418.799.274.177.656.341 1.136.489z" fill="#638b3f"/></g></g></g></g></g></g><g id="XMLID_5166_"><g id="XMLID_5173_"><circle cx="14.583" cy="29.375" fill="#e0ae55" r="13.583"/></g><g id="XMLID_5172_"><circle cx="14.583" cy="29.375" fill="#fc6" r="11.055"/></g><g id="XMLID_5167_"><path d="m19.84 30.21c-.241-.745-.882-1.089-1.579-1.329-.052-.018-.106-.03-.159-.048-.007-.002-.009-.018-.015-.033.193-.159.401-.305.578-.481.822-.815.692-2.755-.58-3.593-.359-.236-1.249-.621-2.271-.621v-2.287h-1.41v2.208h-1.074v-2.208h-1.41v2.278h-2.779v1.484c.29 0 .586-.003.882.001.661.009.905.259.905.919.001 1.913.001 3.827 0 5.74-.001.562-.156.717-.714.719-.267.001-.533 0-.815 0-.092.546-.178 1.06-.273 1.623h2.793v2.347h1.41v-2.261h1.075v2.261h1.41v-2.295c.502-.065.991-.101 1.467-.195.787-.155 1.557-.394 2.069-1.06.734-.955.856-2.044.49-3.169zm-6.487-4.504c.809-.047 1.598-.077 2.362.201.584.213.908.649.899 1.198-.008.539-.351.968-.942 1.166-.746.249-1.516.23-2.32.21v-2.775zm2.985 6.926c-.957.386-1.962.345-2.984.324v-3.077c1.001.007 1.977-.094 2.914.266.629.242.961.652.972 1.224.013.607-.255 1.003-.902 1.263z" fill="#e0ae55"/></g></g><g id="XMLID_5159_"><g id="XMLID_5165_"><circle cx="35.417" cy="35.417" fill="#1fadfc" r="13.583"/></g><g id="XMLID_5164_"><circle cx="35.417" cy="35.417" fill="#92d3ff" r="11.055"/></g><g id="XMLID_5160_"><g id="XMLID_5163_"><path d="m30.868 34.013 4.549-1.964 4.549 1.964-4.549-7.657z" fill="#1fadfc"/></g><g id="XMLID_5162_"><path d="m31.688 39.188 3.729 5.29 3.727-5.291-3.728 2.239z" fill="#1fadfc"/></g><g id="XMLID_5161_"><path d="m29.575 36.189 5.842 3.506 5.842-3.507-5.842-2.522z" fill="#1fadfc"/></g></g></g></g></svg>