<svg clip-rule="evenodd" fill-rule="evenodd" height="512" stroke-linejoin="round" stroke-miterlimit="2" viewBox="0 0 24 24" width="512" xmlns="http://www.w3.org/2000/svg"><g transform="translate(-185.359 -90.903)"><path d="m189.902 99.819c1.26-3.451 4.573-5.916 8.457-5.916 4.967 0 9 4.033 9 9s-4.033 9-9 9c-3.328 0-6.237-1.81-7.794-4.499-.276-.478-.113-1.09.365-1.367.477-.276 1.089-.113 1.366.365 1.211 2.092 3.474 3.501 6.063 3.501 3.863 0 7-3.137 7-7 0-3.864-3.137-7-7-7-3.217 0-5.93 2.174-6.748 5.132l1.752-1c.479-.274 1.09-.108 1.364.372.274.479.107 1.09-.372 1.364l-3.5 2c-.237.136-.519.168-.781.09s-.48-.259-.605-.502l-2-3.903c-.252-.491-.057-1.094.434-1.346s1.094-.057 1.346.434zm9.457 2.67 2.707 2.707c.39.39.39 1.024 0 1.414s-1.024.39-1.414 0l-3-3c-.188-.188-.293-.442-.293-.707v-4c0-.552.448-1 1-1s1 .448 1 1z"/></g></svg>