<svg id="Layer_6" height="512" viewBox="0 0 32 32" width="512" xmlns="http://www.w3.org/2000/svg" data-name="Layer 6"><path d="m5.33 25.6a3.2 3.2 0 0 1 -3.2-3.2v-6.4a1.07 1.07 0 0 1 1.07-1.07h2.13a3.2 3.2 0 0 1 3.2 3.2v4.27a3.2 3.2 0 0 1 -3.2 3.2zm-1.07-8.54v5.34a1.07 1.07 0 0 0 2.13 0v-4.27a1.07 1.07 0 0 0 -1.07-1.07z"/><path d="m3.37 12.79h-.17a1.07 1.07 0 0 1 -.88-1.23 13.87 13.87 0 0 1 23.48-7.5 13.74 13.74 0 0 1 3.86 7.49 1.07 1.07 0 1 1 -2.1.35 11.73 11.73 0 0 0 -23.13 0 1.07 1.07 0 0 1 -1.06.89z"/><path d="m11.6 6.4a1.07 1.07 0 0 1 -.49-2 10.83 10.83 0 0 1 9.77 0 1.07 1.07 0 1 1 -1 1.89 8.56 8.56 0 0 0 -7.81 0 1.06 1.06 0 0 1 -.47.11z"/><path d="m28.81 14.93h-2.14a3.2 3.2 0 0 0 -3.2 3.2v4.27a3.2 3.2 0 0 0 3.2 3.2 3.16 3.16 0 0 0 .92-.15 3.19 3.19 0 0 1 -3.05 2.29h-5.54a3.2 3.2 0 1 0 0 2.13h5.54a5.34 5.34 0 0 0 5.33-5.33v-8.54a1.07 1.07 0 0 0 -1.06-1.07zm-12.81 14.94a1.07 1.07 0 1 1 1.07-1.07 1.07 1.07 0 0 1 -1.07 1.07zm11.74-7.47a1.07 1.07 0 0 1 -2.13 0v-4.27a1.07 1.07 0 0 1 1.07-1.07h1.07z"/></svg>